<?xml version="1.0" encoding="UTF-8" standalone="no"?>
<!-- Creator: CorelDRAW -->

<svg
   xmlns:dc="http://purl.org/dc/elements/1.1/"
   xmlns:cc="http://creativecommons.org/ns#"
   xmlns:rdf="http://www.w3.org/1999/02/22-rdf-syntax-ns#"
   xmlns:svg="http://www.w3.org/2000/svg"
   xmlns="http://www.w3.org/2000/svg"
   xmlns:xlink="http://www.w3.org/1999/xlink"
   xmlns:sodipodi="http://sodipodi.sourceforge.net/DTD/sodipodi-0.dtd"
   xmlns:inkscape="http://www.inkscape.org/namespaces/inkscape"
   xml:space="preserve"
   width="282.22223mm"
   height="136.00035mm"
   style="clip-rule:evenodd;fill-rule:evenodd;image-rendering:optimizeQuality;shape-rendering:geometricPrecision;text-rendering:geometricPrecision"
   viewBox="0 0 282.22224 136.00035"
   id="svg2"
   version="1.1"
   inkscape:version="0.91 r13725"
   sodipodi:docname="Dasani logo.svg"><metadata
     id="metadata53"><rdf:RDF><cc:Work
         rdf:about=""><dc:format>image/svg+xml</dc:format><dc:type
           rdf:resource="http://purl.org/dc/dcmitype/StillImage" /><dc:title></dc:title></cc:Work></rdf:RDF></metadata><sodipodi:namedview
     pagecolor="#ffffff"
     bordercolor="#666666"
     borderopacity="1"
     objecttolerance="10"
     gridtolerance="10"
     guidetolerance="10"
     inkscape:pageopacity="0"
     inkscape:pageshadow="2"
     inkscape:window-width="1366"
     inkscape:window-height="705"
     id="namedview51"
     showgrid="false"
     fit-margin-top="0"
     fit-margin-left="0"
     fit-margin-right="0"
     fit-margin-bottom="0"
     inkscape:zoom="1.3485027"
     inkscape:cx="84.499091"
     inkscape:cy="82.685288"
     inkscape:window-x="-8"
     inkscape:window-y="-8"
     inkscape:window-maximized="1"
     inkscape:current-layer="svg2" /><defs
     id="defs4"><style
       type="text/css"
       id="style6"><![CDATA[
    .fil4 {fill:white}
    .fil1 {fill:black}
    .fil3 {fill:#009AD6}
    .fil2 {fill:#04ADAC}
    .fil0 {fill:#14116C}
    .fil6 {fill:url(#id0)}
    .fil9 {fill:url(#id1)}
    .fil8 {fill:url(#id2)}
    .fil5 {fill:url(#id3)}
    .fil7 {fill:url(#id4)}
   ]]></style><linearGradient
       id="id0"
       gradientUnits="userSpaceOnUse"
       x1="131.677"
       y1="128.354"
       x2="79.377296"
       y2="128.354"><stop
         offset="0"
         style="stop-color:#303A87"
         id="stop9" /><stop
         offset="1"
         style="stop-color:#03ACEB"
         id="stop11" /></linearGradient><linearGradient
       id="id1"
       gradientUnits="userSpaceOnUse"
       xlink:href="#id0"
       x1="136.52299"
       y1="151.04601"
       x2="84.223099"
       y2="151.04601" /><linearGradient
       id="id2"
       gradientUnits="userSpaceOnUse"
       x1="134.10001"
       y1="125.931"
       x2="134.10001"
       y2="148.623"><stop
         offset="0"
         style="stop-color:#303A87"
         id="stop15" /><stop
         offset="1"
         style="stop-color:#02A09F"
         id="stop17" /></linearGradient><linearGradient
       id="id3"
       gradientUnits="userSpaceOnUse"
       xlink:href="#id0"
       x1="79.377296"
       y1="128.354"
       x2="131.677"
       y2="128.354" /><linearGradient
       id="id4"
       gradientUnits="userSpaceOnUse"
       xlink:href="#id2"
       x1="134.10001"
       y1="148.623"
       x2="134.10001"
       y2="125.931" /><linearGradient
       inkscape:collect="always"
       xlink:href="#id0"
       id="linearGradient4181"
       gradientUnits="userSpaceOnUse"
       x1="79.377296"
       y1="128.354"
       x2="131.677"
       y2="128.354" /><linearGradient
       inkscape:collect="always"
       xlink:href="#id0"
       id="linearGradient4183"
       gradientUnits="userSpaceOnUse"
       x1="131.677"
       y1="128.354"
       x2="79.377296"
       y2="128.354" /><linearGradient
       inkscape:collect="always"
       xlink:href="#id2"
       id="linearGradient4185"
       gradientUnits="userSpaceOnUse"
       x1="134.10001"
       y1="148.623"
       x2="134.10001"
       y2="125.931" /><linearGradient
       inkscape:collect="always"
       xlink:href="#id2"
       id="linearGradient4187"
       gradientUnits="userSpaceOnUse"
       x1="134.10001"
       y1="125.931"
       x2="134.10001"
       y2="148.623" /><linearGradient
       inkscape:collect="always"
       xlink:href="#id2"
       id="linearGradient4189"
       gradientUnits="userSpaceOnUse"
       x1="134.10001"
       y1="125.931"
       x2="134.10001"
       y2="148.623" /></defs><g
     id="Layer_x0020_1"
     transform="matrix(4.9386436,0,0,4.9386436,-392.01619,-621.92833)"><metadata
       id="CorelCorpID_0Corel-Layer" /><polygon
       class="fil1"
       points="131.677,148.623 84.2231,148.623 84.2231,130.777 131.677,130.777 "
       id="polygon25"
       style="fill:#000000" /><path
       class="fil2"
       d="m 89.4577,134.083 c 3.4035,0.1551 5.415,2.6822 5.484,5.2981 0.0767,2.9042 -2.4546,5.9181 -6.0713,5.9181 -0.6786,0 -1.6321,0 -2.3106,0 0.0012,-0.1438 0.0026,-0.2878 0.0038,-0.4317 0.6327,0 1.2655,0 1.8983,0 3.817,0 5.8526,-3.1558 5.8526,-5.2654 0,-2.3682 -1.6829,-5.0511 -4.8568,-5.5191 z m 29.9065,0.4218 0.6318,0 3.5561,5.0933 0,1.0368 -4.1879,-6.1301 z m 4.928,0 0.7402,0 0,11.5665 -0.7402,-1.0828 0,-10.4837 z m -5.2028,2.9167 0,7.3572 -1.1735,0 0,-0.5898 0.6472,0 0,-7.5377 0.5263,0.7703 z m -11.0168,-4.7046 c -0.005,0.175 -0.009,0.7802 -0.0141,0.9553 -0.8305,0 -2.3203,0.8559 -2.3721,2.3558 -0.0688,2.0088 1.7217,3.4185 1.6773,6.6223 -0.0506,2.4254 -2.1197,3.5285 -2.8987,4.006 -0.2269,0 -1.3078,0 -1.5346,0 l 0.4938,-0.377 c -0.003,0.002 -0.005,0.005 -0.008,0.007 0.2268,0 0.4536,0 0.6805,0 1.0927,-0.6586 2.7316,-1.8291 2.7316,-3.6734 0,-2.828 -1.7198,-3.8774 -1.7198,-6.3821 0,-1.8905 1.7198,-3.0037 2.3513,-3.0037 0,-0.17 0,-0.3401 0,-0.5101 0.2583,10e-5 0.3657,0.002 0.6124,0 z m -18.9923,2.4714 c 0.6919,0 1.4362,0.2928 2.0823,0.8481 -0.7507,-0.9563 -1.7695,-1.4699 -2.7007,-1.4699 0,3.228 0,6.4561 0,9.6841 0.1635,0 0.3428,-0.0206 0.532,-0.0619 0.0279,-3.1269 0.0587,-5.8287 0.0864,-9.0004 z"
       id="path27"
       inkscape:connector-curvature="0"
       style="fill:#04adac" /><path
       class="fil3"
       d="m 128.926,134.505 0.5718,0 0,10.2739 -2.4866,0 0,-0.5898 1.9148,0 0,-9.6841 z m -29.8494,0 0.7123,0 2.3296,6.9 c -0.0193,-0.001 -0.0384,-0.003 -0.0575,-0.004 -0.1997,-0.0182 -0.394,-0.0464 -0.5844,-0.0807 l -2.4,-6.8149 z m 4.9291,6.3389 c 3e-4,-2e-4 6e-4,-3e-4 9e-4,-5e-4 0.0865,0.1281 0.1412,0.292 0.1671,0.4436 0.0415,0.2421 -10e-4,0.3709 -0.1599,0.5469 -0.3225,0.3574 -0.857,0.5896 -1.4926,0.7639 l 0.7364,2.1811 -2.5971,0 -0.4095,-1.1894 0.2112,0.5996 2.0249,0 -0.7241,-2.0559 c 0.0741,-0.007 0.1495,-0.0163 0.2267,-0.0272 0.7949,-0.1131 1.5474,-0.4217 2.016,-1.2621 z m -4.1564,1.6051 c -1.3726,-0.3183 -2.0743,-0.5278 -3.0328,-0.1714 l -0.7713,2.5013 -1.5491,0 0.191,-0.5898 0.9033,0 0.7139,-2.2167 c 0.9476,-0.4045 1.6398,-0.4137 2.226,-0.2977 0.4132,0.0818 0.782,0.1758 1.1376,0.2591 l 0.1814,0.5152 z m -1.6438,-4.6676 -0.9977,3.2318 c -0.2401,0.086 -0.4771,0.2042 -0.7126,0.3664 l 1.4222,-4.4163 0.2881,0.8181 z m 13.9551,-3.2764 0.7124,0 2.3296,6.9 c -0.0193,-0.001 -0.0384,-0.003 -0.0575,-0.004 -0.1998,-0.0182 -0.3941,-0.0464 -0.5845,-0.0807 l -2.4,-6.8149 z m 4.9291,6.3389 c 3e-4,-2e-4 6e-4,-3e-4 9e-4,-5e-4 0.0865,0.1281 0.1412,0.292 0.1671,0.4436 0.0415,0.2421 -0.001,0.3709 -0.1598,0.5469 -0.3226,0.3574 -0.8571,0.5896 -1.4926,0.7639 l 0.7364,2.1811 -2.5972,0 -0.4095,-1.1894 0.2112,0.5996 2.0249,0 -0.724,-2.0559 c 0.0741,-0.007 0.1495,-0.0163 0.2266,-0.0272 0.795,-0.1131 1.5475,-0.4217 2.016,-1.2621 z m -4.1563,1.6051 c -1.3726,-0.3183 -2.0744,-0.5278 -3.0328,-0.1714 l -0.7714,2.5013 -1.5491,0 0.1911,-0.5898 0.9033,0 0.7138,-2.2167 c 0.9477,-0.4045 1.6399,-0.4137 2.226,-0.2977 0.4133,0.0818 0.782,0.1758 1.1376,0.2591 l 0.1815,0.5152 z m -1.6439,-4.6676 -0.9977,3.2318 c -0.2401,0.086 -0.4771,0.2042 -0.7126,0.3664 l 1.4222,-4.4163 0.2881,0.8181 z"
       id="path29"
       inkscape:connector-curvature="0"
       style="fill:#009ad6" /><path
       class="fil4"
       d="m 128.926,146.6 0.9032,0 0,0.1695 -0.3546,0 0,0.9864 -0.1916,0 0,-0.9864 -0.357,0 0,-0.1695 z m 1.042,0 0.2794,0 0.2778,0.9245 0.2818,-0.9245 0.2794,0 0,1.1559 -0.183,0 0,-0.955 -0.2863,0.955 -0.1883,0 -0.2826,-0.955 0,0.955 -0.1782,0 0,-1.1559 z"
       id="path31"
       inkscape:connector-curvature="0"
       style="fill:#ffffff" /><path
       class="fil4"
       d="m 126.89,134.505 2.0356,0 0,9.6841 -2.0356,0 0,-9.6841 z m -38.4283,0.0617 c 1.7529,0 3.817,1.8204 3.817,4.9872 0,3.3 -2.4586,4.6969 -3.817,4.6969 0,-3.228 0,-6.4561 0,-9.6841 z m -2.0355,-0.5552 c 0.6785,0 1.357,0 2.0355,0 3.817,0 5.8526,2.9859 5.8526,5.5908 0,2.1096 -2.0356,5.2654 -5.8526,5.2654 -0.6785,0 -1.357,0 -2.0355,0 0,-3.6188 0,-7.2375 0,-10.8562 z m 12.8596,6.8385 -1.3688,-3.8867 -1.4222,4.4163 c 0.4932,-0.3397 0.9926,-0.4862 1.5148,-0.5489 0.4535,-0.0545 0.8727,-0.0364 1.2762,0.0193 z m -2.2345,-6.345 2.0249,0 2.4,6.8149 c 0.1904,0.0343 0.3847,0.0625 0.5844,0.0807 0.5217,0.0474 1.1161,-0.0721 1.9565,-0.5776 -0.4677,0.8563 -1.2262,1.1689 -2.0278,1.283 -0.0772,0.0109 -0.1526,0.0199 -0.2267,0.0272 l 0.7241,2.0559 -2.0249,0 -0.7943,-2.2553 c -0.3556,-0.0833 -0.7244,-0.1773 -1.1376,-0.2591 -0.5862,-0.116 -1.2784,-0.1068 -2.226,0.2977 l -0.7139,2.2167 -1.0222,0 2.8152,-8.7421 -0.3317,-0.942 z m 10.4087,-1.7888 c 0,0.1703 0,0.3406 0,0.511 -0.6315,0 -2.3513,1.1132 -2.3513,3.0037 0,2.5047 1.7198,3.5541 1.7198,6.3821 0,1.8443 -1.6389,3.0148 -2.7316,3.6734 -0.2269,0 -0.4537,0 -0.6805,0 1.2558,-1.1185 1.6923,-1.7789 1.6923,-3.032 0,-2.3767 -1.6654,-4.0796 -1.6654,-6.4024 0,-2.4026 2.4352,-4.1358 4.0167,-4.1358 z m 4.9098,8.1338 -1.3688,-3.8867 -1.4222,4.4163 c 0.4933,-0.3397 0.9926,-0.4862 1.5149,-0.5489 0.4534,-0.0545 0.8727,-0.0364 1.2761,0.0193 z m -2.2345,-6.345 2.0249,0 2.4,6.8149 c 0.1904,0.0343 0.3847,0.0625 0.5845,0.0807 0.5216,0.0474 1.116,-0.0721 1.9564,-0.5776 -0.4677,0.8563 -1.2262,1.1689 -2.0278,1.283 -0.0771,0.0109 -0.1525,0.0199 -0.2266,0.0272 l 0.724,2.0559 -2.0249,0 -0.7943,-2.2553 c -0.3556,-0.0833 -0.7243,-0.1773 -1.1376,-0.2591 -0.5861,-0.116 -1.2783,-0.1068 -2.226,0.2977 l -0.7138,2.2167 -1.0222,0 2.8152,-8.7421 -0.3318,-0.942 z m 6.9613,0 2.2674,0 4.1879,6.1301 0,-6.1301 0.7401,0 0,10.5326 -5.7291,-8.3862 0,7.5377 -0.7402,0 0,-8.6212 -0.7261,-1.0629 z"
       id="path33"
       inkscape:connector-curvature="0"
       style="fill:#ffffff" /><polygon
       class="fil5"
       points="131.677,125.931 79.3773,130.777 79.3773,125.931 "
       id="polygon35"
       style="fill:url(#linearGradient4181)" /><polygon
       class="fil6"
       points="79.3773,130.777 131.677,125.931 131.677,130.777 "
       id="polygon37"
       style="fill:url(#linearGradient4183)" /><polygon
       class="fil7"
       points="136.523,148.623 131.677,148.623 136.523,125.931 "
       id="polygon39"
       style="fill:url(#linearGradient4185)" /><polygon
       class="fil8"
       points="136.523,125.931 131.677,148.623 131.677,125.931 "
       id="polygon41"
       style="fill:url(#linearGradient4187)" /><polygon
       class="fil7"
       points="84.2231,153.469 79.3773,153.469 84.2231,130.777 "
       id="polygon43"
       style="fill:url(#id4)" /><polygon
       class="fil8"
       points="84.2231,130.777 79.3773,153.469 79.3773,130.777 "
       id="polygon45"
       style="fill:url(#linearGradient4189)" /><polygon
       class="fil9"
       points="136.523,153.469 84.2231,153.469 136.523,148.623 "
       id="polygon47"
       style="fill:url(#id1)" /><polygon
       class="fil5"
       points="136.523,148.623 84.2231,153.469 84.2231,148.623 "
       id="polygon49"
       style="fill:url(#id3)" /></g></svg>